<?xml version="1.0" standalone="no"?>
<!DOCTYPE svg PUBLIC "-//W3C//DTD SVG 20010904//EN"
 "http://www.w3.org/TR/2001/REC-SVG-20010904/DTD/svg10.dtd">
<svg version="1.0" xmlns="http://www.w3.org/2000/svg"
 width="3126.000000pt" height="3126.000000pt" viewBox="0 0 3126.000000 3126.000000"
 preserveAspectRatio="xMidYMid meet">
<metadata>
Created by potrace 1.14, written by Peter Selinger 2001-2017
</metadata>
<g transform="translate(0.000000,3126.000000) scale(0.100000,-0.100000)"
fill="#000000" stroke="none">
<path d="M15457 31254 c-1 -1 -117 -5 -257 -8 -292 -8 -488 -16 -674 -31 -28
-2 -91 -6 -141 -10 -49 -3 -101 -8 -115 -10 -14 -2 -65 -7 -114 -10 -49 -4
-96 -8 -105 -10 -9 -1 -51 -6 -93 -10 -43 -3 -88 -8 -100 -10 -13 -2 -66 -9
-118 -15 -52 -6 -108 -13 -125 -15 -16 -2 -52 -7 -80 -10 -27 -4 -61 -8 -75
-10 -14 -2 -47 -7 -75 -10 -27 -4 -57 -8 -65 -10 -8 -2 -37 -7 -65 -10 -27 -4
-57 -8 -65 -10 -8 -2 -35 -7 -60 -10 -25 -3 -67 -10 -95 -15 -27 -5 -66 -12
-85 -15 -40 -7 -185 -33 -215 -39 -11 -2 -38 -7 -60 -11 -22 -4 -50 -9 -61
-11 -36 -7 -157 -44 -189 -59 -16 -7 -47 -20 -69 -29 -55 -23 -152 -82 -222
-137 -294 -228 -467 -577 -468 -944 -1 -330 120 -622 354 -856 289 -290 673
-407 1090 -331 205 38 380 68 437 77 23 3 56 8 73 10 16 3 45 7 63 10 17 2 50
7 72 10 53 9 84 13 225 30 25 3 61 7 80 10 19 3 62 7 95 11 33 3 71 7 85 9 14
2 61 7 105 10 44 3 96 8 115 10 19 3 67 7 105 9 39 3 107 8 153 12 426 32
1174 36 1610 9 196 -12 242 -15 287 -20 28 -2 86 -7 130 -11 108 -9 209 -19
295 -29 19 -2 60 -7 90 -10 30 -3 107 -13 170 -21 168 -22 182 -24 210 -29 14
-2 45 -7 70 -10 41 -5 125 -19 190 -31 14 -2 41 -7 60 -10 33 -5 52 -8 110
-19 153 -30 316 -60 410 -75 63 -10 138 -24 165 -30 28 -6 57 -13 65 -15 88
-20 135 -31 255 -61 77 -20 147 -37 155 -39 124 -30 482 -137 725 -216 749
-244 1466 -552 2165 -930 118 -64 231 -125 250 -136 19 -11 80 -46 135 -78
123 -71 528 -323 610 -380 33 -22 89 -61 125 -86 36 -25 103 -72 150 -104 354
-244 868 -645 1140 -889 25 -23 81 -72 125 -111 310 -273 696 -657 1020 -1015
34 -37 163 -185 284 -325 126 -146 488 -612 606 -780 27 -38 52 -72 55 -75 3
-3 33 -45 67 -95 33 -49 99 -146 147 -215 156 -226 252 -373 346 -530 92 -154
109 -183 158 -270 14 -25 36 -62 49 -82 12 -21 23 -40 23 -42 0 -3 13 -27 28
-53 98 -167 314 -595 467 -928 330 -716 629 -1595 829 -2435 45 -193 45 -188
51 -319 3 -63 8 -117 10 -120 2 -4 6 -26 10 -51 4 -25 8 -47 10 -50 2 -3 6
-26 10 -50 3 -25 8 -52 10 -60 4 -14 33 -173 40 -215 1 -11 5 -40 9 -65 4 -25
11 -67 16 -95 5 -27 11 -70 14 -95 3 -25 7 -54 9 -65 3 -11 8 -49 13 -85 4
-36 8 -67 9 -70 1 -5 10 -75 20 -155 5 -36 12 -100 20 -175 3 -30 8 -77 11
-105 3 -27 7 -75 9 -105 3 -30 7 -77 10 -105 4 -47 10 -131 20 -285 27 -412
27 -1182 1 -1596 -9 -137 -17 -244 -22 -294 -2 -30 -7 -80 -10 -110 -2 -30 -7
-73 -9 -95 -3 -22 -7 -67 -10 -100 -3 -33 -10 -94 -15 -135 -5 -41 -12 -97
-15 -125 -3 -27 -10 -81 -16 -120 -5 -38 -12 -86 -15 -105 -19 -135 -38 -259
-59 -375 -8 -44 -16 -91 -19 -105 -4 -26 -19 -112 -21 -120 -15 -67 -22 -103
-31 -170 -3 -25 -15 -88 -26 -140 -11 -52 -22 -105 -24 -118 -22 -118 -168
-658 -263 -967 -83 -273 -269 -791 -364 -1015 -6 -14 -11 -27 -11 -30 -2 -10
-90 -216 -123 -288 -18 -41 -33 -75 -33 -77 0 -2 -18 -43 -41 -92 -22 -48 -54
-116 -70 -151 -88 -189 -285 -578 -376 -742 -20 -36 -45 -81 -56 -100 -294
-532 -665 -1089 -1099 -1654 -72 -92 -138 -178 -148 -190 -10 -11 -74 -88
-143 -171 -380 -458 -812 -910 -1258 -1317 -42 -38 -175 -158 -200 -179 -13
-11 -35 -30 -49 -42 -54 -48 -279 -236 -350 -292 -41 -33 -77 -62 -80 -65 -19
-19 -470 -358 -572 -429 -248 -175 -635 -436 -740 -499 -43 -26 -98 -59 -122
-74 -24 -14 -64 -37 -88 -51 -23 -13 -78 -45 -121 -71 -43 -25 -81 -46 -84
-46 -3 0 -17 -8 -31 -18 -26 -18 -52 -32 -327 -179 -137 -73 -607 -305 -625
-309 -3 0 -27 -11 -55 -24 -27 -13 -52 -25 -55 -25 -3 -1 -32 -14 -65 -29
-162 -75 -673 -282 -790 -321 -22 -7 -112 -39 -200 -70 -335 -119 -874 -280
-1137 -341 -10 -2 -26 -6 -35 -8 -10 -2 -54 -13 -98 -25 -44 -11 -93 -23 -110
-26 -16 -3 -41 -8 -55 -11 -14 -3 -41 -9 -60 -14 -19 -5 -91 -11 -159 -15 -68
-3 -126 -7 -130 -9 -3 -3 -27 -7 -51 -11 -25 -3 -61 -10 -80 -15 -19 -5 -51
-11 -70 -14 -19 -3 -48 -8 -65 -11 -127 -24 -251 -45 -295 -50 -25 -3 -56 -7
-70 -10 -30 -6 -70 -12 -130 -20 -25 -3 -56 -8 -70 -10 -68 -10 -110 -15 -160
-20 -30 -3 -66 -8 -80 -10 -14 -2 -50 -7 -80 -10 -30 -3 -71 -8 -90 -10 -19
-3 -64 -7 -100 -10 -36 -3 -85 -8 -110 -10 -103 -10 -322 -26 -405 -30 -314
-16 -431 -19 -770 -19 -343 0 -578 6 -780 19 -202 14 -306 22 -400 31 -33 4
-73 7 -90 9 -63 5 -191 18 -205 20 -8 2 -44 6 -80 10 -36 3 -76 8 -90 10 -14
2 -50 7 -80 10 -30 4 -62 9 -71 10 -9 2 -40 6 -70 10 -30 4 -121 18 -204 31
-82 14 -163 27 -180 30 -104 17 -155 26 -195 34 -362 78 -619 55 -888 -77
-271 -134 -469 -347 -592 -638 -24 -56 -51 -153 -65 -235 -3 -19 -8 -48 -11
-65 -8 -43 -7 -220 1 -285 39 -327 213 -623 484 -827 109 -83 314 -177 430
-198 14 -3 41 -9 59 -14 18 -5 35 -10 37 -10 6 1 76 -11 110 -17 57 -11 309
-56 333 -59 15 -2 41 -6 57 -9 42 -8 211 -34 265 -41 25 -3 56 -8 70 -10 48
-7 176 -24 225 -30 49 -6 67 -8 155 -19 25 -4 72 -9 105 -11 33 -3 76 -8 95
-10 19 -3 64 -7 100 -10 36 -3 90 -8 120 -10 281 -26 565 -42 865 -50 219 -6
325 -12 427 -23 153 -18 860 1 1258 33 30 2 91 7 135 10 44 3 98 8 120 10 22
3 72 7 110 10 39 3 88 8 110 10 77 9 140 16 185 20 25 3 65 8 90 12 25 3 54 7
65 8 37 4 140 16 165 20 31 5 95 14 146 21 22 3 50 7 64 9 23 3 195 31 250 40
14 2 39 6 55 9 107 18 386 70 535 101 146 30 328 70 375 82 33 8 69 17 80 19
11 2 83 20 160 39 77 20 151 38 165 41 69 14 526 146 745 215 556 176 1190
415 1646 622 30 14 106 48 169 77 230 104 765 373 960 482 30 17 75 42 100 56
179 97 470 270 773 457 108 67 542 358 692 465 255 181 797 594 863 657 7 7
34 29 60 50 26 21 52 43 58 48 6 6 32 28 59 50 60 49 278 237 285 245 3 4 55
51 115 105 260 231 619 583 890 870 200 212 175 185 335 365 132 149 300 345
360 420 19 24 58 71 86 104 81 98 352 449 459 596 54 74 115 158 135 185 20
28 58 82 85 120 483 700 863 1343 1205 2040 141 287 167 342 260 550 69 154
211 488 214 505 1 3 30 75 64 161 100 253 291 789 337 949 7 25 27 90 45 145
26 83 78 260 130 445 5 19 18 67 29 105 18 63 103 409 131 531 7 27 13 56 15
64 2 8 15 71 30 140 14 69 30 141 35 160 5 19 12 51 15 70 3 19 10 58 15 85 5
28 12 64 15 80 3 17 12 66 21 110 8 44 17 93 19 108 2 16 6 40 9 55 3 15 8 43
11 62 3 19 8 47 10 63 3 15 7 42 10 60 3 17 7 43 10 57 2 14 7 50 11 80 3 30
7 57 9 60 2 3 6 35 10 70 3 36 8 72 10 80 2 8 7 40 10 70 3 30 8 66 10 80 2
14 7 50 10 80 3 30 8 66 10 80 2 14 6 57 10 95 3 39 8 84 10 100 2 17 7 62 10
100 3 39 8 86 10 105 3 19 7 73 11 120 3 47 7 103 9 125 2 36 8 123 20 315 19
301 24 993 11 1403 -4 131 -9 246 -11 255 -1 9 -6 78 -10 152 -3 74 -8 151
-10 170 -2 19 -6 71 -10 115 -12 146 -33 368 -40 425 -2 19 -7 60 -10 90 -3
30 -7 71 -10 90 -3 19 -7 55 -10 80 -12 101 -65 469 -81 560 -2 14 -9 54 -14
90 -6 36 -13 76 -15 90 -3 14 -7 39 -10 55 -8 44 -34 186 -40 215 -3 14 -12
61 -20 105 -9 44 -20 98 -25 120 -12 50 -69 313 -74 341 -18 95 -138 552 -217
829 -79 275 -243 778 -314 960 -15 39 -28 75 -29 80 -2 14 -74 202 -92 242 -8
17 -14 34 -14 37 0 6 -97 248 -125 311 -7 17 -30 70 -50 120 -21 49 -48 112
-60 140 -13 27 -34 75 -48 105 -31 71 -57 127 -126 275 -60 130 -298 605 -376
750 -122 227 -414 728 -530 910 -101 158 -137 213 -221 340 -98 149 -300 441
-392 565 -178 240 -288 384 -437 570 -72 90 -239 295 -245 300 -3 3 -30 34
-60 70 -71 84 -234 270 -285 326 -321 351 -636 673 -895 914 -67 63 -128 120
-134 126 -6 5 -60 54 -121 109 -60 54 -128 114 -150 134 -22 20 -114 100 -205
177 -523 443 -1096 867 -1650 1223 -63 41 -131 84 -150 97 -70 45 -332 204
-337 204 -3 0 -17 8 -31 19 -15 10 -43 28 -62 38 -526 298 -582 328 -965 517
-402 198 -409 202 -920 421 -501 215 -1344 503 -1902 651 -29 8 -79 21 -110
29 -32 9 -71 18 -87 21 -16 3 -33 7 -37 9 -12 8 -329 82 -644 151 -85 19 -178
37 -242 49 -16 3 -53 9 -83 15 -30 6 -64 12 -75 14 -11 2 -38 7 -60 11 -64 11
-242 42 -300 51 -16 2 -41 6 -55 9 -14 3 -45 7 -70 10 -25 3 -56 7 -70 10 -44
8 -270 38 -380 50 -30 3 -66 8 -80 10 -14 2 -56 7 -95 10 -38 4 -81 8 -95 10
-14 2 -59 7 -100 10 -41 4 -91 8 -110 10 -19 2 -75 6 -125 10 -49 4 -106 8
-125 10 -19 2 -91 7 -160 10 -69 3 -144 8 -168 10 -124 12 -965 28 -975 19z"/>
<path d="M7570 28849 c-253 -26 -393 -80 -659 -258 -255 -171 -830 -585 -861
-620 -3 -3 -43 -35 -90 -71 -47 -35 -94 -72 -105 -81 -11 -9 -103 -86 -205
-170 -102 -84 -187 -155 -190 -158 -3 -3 -34 -30 -70 -60 -36 -30 -72 -62 -81
-70 -8 -9 -42 -38 -73 -66 -32 -27 -70 -61 -85 -75 -15 -14 -74 -68 -131 -120
-183 -168 -563 -542 -732 -721 -81 -86 -239 -258 -260 -281 -11 -13 -34 -39
-52 -58 -124 -135 -523 -612 -636 -760 -19 -25 -37 -47 -40 -50 -18 -15 -382
-508 -491 -665 -214 -309 -259 -394 -308 -590 -27 -108 -34 -171 -33 -290 1
-109 6 -159 23 -232 6 -26 12 -57 15 -67 10 -52 51 -160 89 -236 182 -362 548
-616 945 -656 66 -6 258 -6 269 0 3 2 26 7 51 10 67 9 83 13 173 40 168 51
337 152 467 278 90 88 119 124 235 293 193 283 478 661 713 945 63 76 284 333
326 379 23 25 66 72 96 105 30 33 82 89 115 125 232 253 742 740 1014 969 31
26 65 55 76 65 125 113 512 416 801 627 19 14 132 92 252 174 279 191 322 224
409 314 161 166 276 392 317 623 16 92 19 308 5 391 -19 113 -52 219 -101 327
-63 141 -219 341 -333 426 -22 17 -48 37 -58 46 -33 30 -201 118 -284 148
-161 59 -354 85 -513 70z"/>
<path d="M17087 23954 c-1 -1 -24 -5 -52 -8 -183 -24 -347 -86 -515 -194 -75
-48 -506 -476 -3741 -3711 -3281 -3280 -3663 -3665 -3714 -3745 -51 -78 -128
-233 -141 -283 -2 -10 -13 -52 -24 -93 -40 -150 -46 -341 -14 -530 7 -46 68
-229 92 -277 148 -299 401 -522 712 -627 153 -51 380 -73 531 -51 204 29 401
109 561 228 45 33 1482 1463 3688 3669 1988 1989 3627 3629 3641 3645 84 95
171 253 219 394 30 91 35 112 46 189 3 25 8 54 10 65 7 32 6 216 -1 270 -41
314 -200 600 -445 799 -161 131 -375 221 -599 252 -42 6 -249 12 -254 8z"/>
<path d="M1467 19704 c-1 -1 -37 -4 -80 -8 -463 -39 -879 -366 -1031 -809 -23
-67 -61 -237 -81 -357 -3 -19 -10 -57 -15 -85 -6 -27 -12 -63 -14 -80 -2 -16
-7 -41 -10 -55 -3 -14 -8 -43 -11 -65 -3 -22 -7 -47 -10 -55 -2 -8 -6 -35 -9
-60 -4 -25 -8 -56 -10 -70 -3 -14 -10 -61 -16 -105 -6 -44 -13 -91 -15 -105
-2 -14 -6 -45 -10 -70 -3 -25 -10 -76 -15 -115 -6 -38 -12 -93 -15 -120 -2
-28 -6 -64 -9 -80 -2 -17 -7 -61 -11 -100 -4 -38 -8 -77 -10 -85 -2 -8 -6 -53
-10 -100 -3 -47 -8 -92 -10 -100 -2 -8 -6 -66 -10 -129 -4 -62 -8 -122 -10
-131 -5 -27 -18 -259 -31 -570 -14 -336 -8 -1008 11 -1365 7 -129 16 -283 20
-340 10 -136 30 -356 40 -445 2 -19 9 -80 15 -135 15 -135 35 -302 45 -365 2
-14 6 -43 9 -65 30 -216 100 -646 121 -735 3 -14 7 -40 10 -59 2 -18 7 -41 9
-50 3 -9 7 -27 10 -41 26 -145 97 -318 179 -440 25 -38 116 -148 152 -185 37
-39 152 -128 216 -168 69 -43 215 -113 257 -122 9 -3 51 -13 92 -24 304 -82
675 -18 945 162 272 181 469 474 521 775 2 12 7 34 10 50 10 47 12 279 3 334
-5 29 -16 89 -24 133 -20 113 -22 124 -34 180 -5 28 -12 68 -15 90 -4 23 -9
52 -11 65 -6 28 -21 123 -30 185 -4 22 -8 51 -10 65 -3 14 -9 61 -15 105 -6
44 -13 91 -15 105 -2 14 -7 50 -10 80 -3 30 -8 66 -10 80 -5 33 -22 196 -31
285 -3 39 -8 84 -9 100 -7 63 -15 164 -20 255 -4 52 -8 113 -10 135 -27 287
-27 1202 0 1585 2 36 7 106 10 155 4 50 8 108 10 130 2 22 7 72 10 110 4 39 9
86 10 105 2 19 6 62 9 95 3 33 8 76 11 95 3 19 7 58 9 85 3 28 8 66 10 85 3
19 13 88 21 152 9 65 18 127 20 138 2 12 9 56 16 98 6 42 12 86 14 97 9 52 17
99 21 119 3 18 16 89 28 161 1 11 6 31 9 45 38 158 55 384 36 501 -5 30 -11
72 -15 93 -16 110 -97 299 -182 431 -63 96 -230 261 -327 324 -118 77 -268
144 -370 167 -5 1 -30 7 -55 12 -56 13 -264 33 -273 26z"/>
<path d="M17085 16829 c-122 -16 -149 -21 -232 -44 -111 -32 -287 -119 -378
-187 -38 -29 -907 -890 -1931 -1913 -1455 -1455 -1871 -1876 -1907 -1932 -150
-230 -219 -464 -212 -718 4 -103 6 -123 30 -235 84 -402 410 -756 811 -880 68
-20 75 -22 181 -41 122 -22 316 -15 445 16 160 38 334 117 453 207 59 44 3696
3670 3778 3766 115 135 232 394 252 560 4 26 8 54 11 63 12 43 3 326 -12 350
-2 4 -6 24 -10 45 -9 63 -63 213 -107 298 -180 352 -552 605 -942 641 -98 10
-177 11 -230 4z"/>
<path d="M17884 10584 c-113 -19 -265 -69 -354 -117 -166 -89 -212 -129 -726
-642 -575 -574 -605 -608 -693 -782 -30 -60 -94 -233 -86 -233 2 0 0 -12 -6
-27 -17 -46 -21 -84 -25 -253 -3 -155 0 -189 30 -328 20 -92 98 -262 172 -373
59 -90 204 -238 297 -303 122 -86 308 -169 425 -191 15 -3 41 -8 57 -11 324
-62 690 28 955 235 68 53 1003 985 1074 1071 76 92 109 143 162 252 29 58 81
210 88 258 3 19 8 46 11 60 15 71 21 240 10 326 -28 226 -119 450 -249 614
-53 65 -208 210 -271 252 -127 83 -284 152 -405 177 -30 6 -66 14 -80 17 -57
13 -308 12 -386 -2z"/>
<path d="M3608 8886 c-1 -2 -46 -6 -98 -9 -500 -31 -942 -396 -1070 -885 -54
-206 -56 -393 -5 -619 10 -43 58 -168 85 -223 43 -85 50 -98 126 -210 39 -58
86 -127 105 -155 18 -27 37 -54 41 -60 4 -5 66 -92 137 -192 72 -101 165 -229
207 -285 95 -126 316 -411 324 -418 3 -3 35 -41 70 -85 93 -115 283 -341 355
-421 23 -25 141 -158 157 -177 144 -165 552 -583 814 -834 48 -46 264 -247
288 -268 130 -115 182 -161 186 -165 3 -3 34 -30 70 -60 36 -30 67 -58 70 -61
3 -3 48 -41 100 -84 52 -44 97 -82 100 -85 3 -3 48 -39 100 -80 52 -41 97 -78
100 -81 3 -4 79 -64 170 -133 91 -70 172 -133 180 -139 8 -7 31 -23 50 -37 19
-13 37 -27 40 -30 3 -3 73 -54 155 -113 83 -59 155 -111 161 -116 44 -36 333
-224 390 -253 68 -36 217 -90 279 -103 162 -32 346 -36 479 -9 12 2 35 7 51
10 43 7 202 62 255 87 98 47 244 151 329 236 258 258 384 611 347 976 -22 218
-131 480 -266 640 -69 82 -193 191 -286 252 -148 97 -706 505 -744 543 -3 3
-50 41 -105 85 -55 44 -109 87 -120 96 -545 456 -979 869 -1375 1309 -41 45
-82 90 -91 99 -32 32 -268 310 -375 441 -133 163 -320 406 -429 555 -43 61
-81 112 -85 115 -3 3 -9 12 -15 21 -25 42 -265 389 -309 447 -201 267 -514
439 -851 467 -38 4 -75 8 -82 10 -6 2 -13 2 -15 1z"/>
</g>
</svg>
